<?xml version="1.0" encoding="UTF-8"?>
<svg id="Ebene_1" data-name="Ebene 1" xmlns="http://www.w3.org/2000/svg" viewBox="0 0 1024 1024">
  <path d="M624.11,627.16h-296.35c4.89-5.12,24.75-27.05,25.72-61.31,1.06-37.56-21.4-61.99-25.72-66.52h296.35v127.82Z"/>
  <path d="M279.88,495.08c-30.4,0-55.05,32.07-55.05,71.62s24.65,71.62,55.05,71.62,55.05-32.07,55.05-71.62-24.65-71.62-55.05-71.62ZM273.22,598.74c-12.31,0-22.29-14.71-22.29-32.85s9.98-32.85,22.29-32.85,22.29,14.71,22.29,32.85-9.98,32.85-22.29,32.85Z"/>
  <path d="M466.56,431.75h3.77c16.5,0,29.9,13.4,29.9,29.9v22.54h-63.57v-22.54c0-16.5,13.4-29.9,29.9-29.9Z"/>
  <path d="M557.52,431.75h3.77c16.5,0,29.9,13.4,29.9,29.9v22.54h-63.57v-22.54c0-16.5,13.4-29.9,29.9-29.9Z"/>
  <rect x="315.96" y="415.82" width="75.12" height="68.36"/>
  <rect x="290.21" y="372.34" width="124.33" height="43.49" rx="21.74" ry="21.74"/>
  <path d="M501.23,177.84c-2.8-2.81-14.25-13.86-29.62-17.39-8.36-1.92-17.08-1.44-17.92-1.39-4.31.26-7.71.97-8.39,1.11-2.89.61-5.33,1.37-7.26,2.06-3.3.82-5.81,1.88-7.5,2.71-3.41,1.67-7.41,4.3-7.41,4.3h0s-2.81,2.14-5.23,4.29c-2.13,1.89-8.05,8.05-6.06,6.02h0s-5.07,6.67-8.51,14.68c-.3.69-2.57,6.06-3.6,12.08-.26,1.53-.57,3.31-.62,5.71-.04,1.78.03,4.6.03,4.6h0s-5.68-.89-11.06-.59c-4.35.24-7.71,1.22-11.35,2.28-1.68.49-4.07,1.2-7.1,2.53-3.73,1.64-6.31,3.31-7.03,3.77-2.72,1.78-4.56,3.4-5.99,4.67-1.86,1.65-4.39,3.92-7.06,7.48-.65.86-2.12,2.88-3.67,5.71-.59,1.07-2.18,4.09-3.57,8.32-1.42,4.31-1.92,7.73-2.03,8.57-.15,1.11-.66,5.04-.28,10.21.18,2.39.46,5.96,1.83,10.31,1.19,3.75,3.25,8.31,3.25,8.31h0s-4.04,2.61-5.26,3.43c-4.75,3.19-7.95,6.95-10.31,9.73-1.69,1.99-4.02,4.75-6.37,8.9-.58,1.03-2.64,4.74-4.36,10.04-2.03,6.24-2.48,11.26-2.6,12.84-.35,4.65,0,8.26.17,9.73,0,0,.58,4.99,2.1,9.86.05.15.84,2.69.84,2.69h64.66c1.9-24.82,9.04-32.99,15.18-35.89,7.99-3.78,15.85.63,30.8-5.9,5.92-2.59,10.01-5.6,11.99-7.18,3.27-2.6,9.7-7.71,13.55-16.26,3.71-8.22,4.52-18.49,4.52-18.49h0s11.73-.5,21.51-4.7c6.64-2.85,10.89-6.77,14.61-10.2,3.16-2.92,8.24-7.68,12.41-15.31,1.26-2.3,8.83-16.65,5.9-34.71-1.1-6.79-3.34-11.97-4.4-14.41-2.79-6.38-6.15-11.21-8.8-14.52Z"/>
  <rect x="584.56" y="353.26" width="281.78" height="43.49" rx="21.74" ry="21.74"/>
  <path d="M638,409.62v217.54h199.45v-217.54h-199.45ZM798.08,520c0,10.74-8.71,19.45-19.45,19.45h-78.91c-10.74,0-19.45-8.71-19.45-19.45v-62.24c0-10.74,8.71-19.45,19.45-19.45h78.91c10.74,0,19.45,8.71,19.45,19.45v62.24Z"/>
  <g>
    <path d="M803.46,793.05c-.86,1.54-1.78,3.05-2.75,4.51h2.75v-4.51Z"/>
    <path d="M742.74,687.08c26.01,0,48.7,14.44,60.71,35.86v-80.56h-445.03v155.18h25.63c-7.5-11.3-11.87-24.91-11.87-39.57,0-39.17,31.26-70.92,69.83-70.92s69.83,31.75,69.83,70.92c0,14.65-4.38,28.26-11.87,39.57h34.92c-7.5-11.3-11.87-24.91-11.87-39.57,0-39.17,31.26-70.92,69.83-70.92s69.83,31.75,69.83,70.92c0,14.65-4.38,28.26-11.87,39.57h33.98c-7.5-11.3-11.87-24.91-11.87-39.57,0-39.17,31.26-70.92,69.83-70.92Z"/>
  </g>
  <path d="M442.08,705.29c-29.32,0-53.09,23.77-53.09,53.09s23.77,53.09,53.09,53.09,53.09-23.77,53.09-53.09-23.77-53.09-53.09-53.09ZM442,778.27c-11.14,0-20.17-9.03-20.17-20.17s9.03-20.17,20.17-20.17,20.17,9.03,20.17,20.17-9.03,20.17-20.17,20.17Z"/>
  <path d="M592.81,705.29c-29.32,0-53.09,23.77-53.09,53.09s23.77,53.09,53.09,53.09,53.09-23.77,53.09-53.09-23.77-53.09-53.09-53.09ZM592.73,778.27c-11.14,0-20.17-9.03-20.17-20.17s9.03-20.17,20.17-20.17,20.17,9.03,20.17,20.17-9.03,20.17-20.17,20.17Z"/>
  <path d="M743.53,705.29c-29.32,0-53.09,23.77-53.09,53.09s23.77,53.09,53.09,53.09,53.09-23.77,53.09-53.09-23.77-53.09-53.09-53.09ZM743.45,778.27c-11.14,0-20.17-9.03-20.17-20.17s9.03-20.17,20.17-20.17,20.17,9.03,20.17,20.17-9.03,20.17-20.17,20.17Z"/>
  <path d="M236.43,642.39c-2.36.08-7.07.62-10.22,4.08-1.33,1.46-2.32,3.38-3.17,11.28-1.24,11.67-.69,22.64-.69,22.64h0s-53.26,84.35-63.89,95.36c-.4.41-2.18,2.21-3.15,5.11-.54,1.6-2.05,7.18,1.54,11.93,3.74,4.94,9.85,4.8,10.42,4.78h191.15v-155.18h-122ZM193.6,771.14c17.71-26.88,35.43-53.75,53.14-80.63,6.4.06,12.8.13,19.2.19-15.84,26.81-31.68,53.62-47.52,80.43h-24.83ZM279.55,771.14h-28.56c12.87-26.88,25.74-53.75,38.61-80.63h21.28c-10.44,26.88-20.89,53.75-31.33,80.63ZM346.29,771.14h-34c7.01-26.88,14.03-53.75,21.04-80.63h14.6c-.55,26.88-1.1,53.75-1.64,80.63Z"/>
  <path d="M826.39,724.89c.59,4.86,1.31,12.24,1.42,21.25.24,18.68.23,28.81-5.98,37.85-2.33,3.39-7.48,9.46-18.38,13.57v-155.18h53.11c2.54.27,6.65,1.13,9.49,4.33,3.46,3.9,3.2,9.22,3.09,11.63-1.71,37.81,4.39,47.56-5.46,57.63-11.53,11.79-31.01,9.82-37.29,8.92Z"/>
</svg>